HIERARCHY
ROOT pelvis
{
  OFFSET 0 100 0
  CHANNELS 6 Xposition Yposition Zposition Zrotation Xrotation Yrotation
  JOINT pelvis_right_femur
  {
    OFFSET -10.78128 -3.44521 -0.5502486
    CHANNELS 3 Zrotation Xrotation Yrotation
    JOINT right_femur_tibia
    {
      OFFSET -0.8047443 -44.0398 -0.1307829
      CHANNELS 3 Zrotation Xrotation Yrotation
      JOINT right_tibia_foot
      {
        OFFSET 3.006224 -47.83518 -5
        CHANNELS 3 Zrotation Xrotation Yrotation
        End Site
        {
          OFFSET 0 -5 15
        }
      }
    }
  }
  JOINT pelvis_left_femur
  {
    OFFSET 10.78128 -3.44521 -0.5502486
    CHANNELS 3 Zrotation Xrotation Yrotation
    JOINT left_femur_tibia
    {
      OFFSET 0.8047443 -44.0398 -0.1307829
      CHANNELS 3 Zrotation Xrotation Yrotation
      JOINT left_tibia_foot
      {
        OFFSET -4.370144 -48.10324 -4.275266
        CHANNELS 3 Zrotation Xrotation Yrotation
        End Site
        {
          OFFSET 0 -5 15
        }
      }
    }
  }
  JOINT pelvis_spine1
  {
    OFFSET 0 6.468898 -3.129235
    CHANNELS 3 Zrotation Xrotation Yrotation
    JOINT spine1
    {
      OFFSET 0 23.15396 4.99043
      CHANNELS 3 Zrotation Xrotation Yrotation
      JOINT spine2
      {
        OFFSET 0 20.79997 -5.064912
        CHANNELS 3 Zrotation Xrotation Yrotation
        JOINT neck
        {
          OFFSET 0 14.38658 9.616178
          CHANNELS 3 Zrotation Xrotation Yrotation
          End Site
          {
            OFFSET 0 20 0
          }
        }
      }
      JOINT right_manubrium
      {
        OFFSET -5.722621 16.35077 3.967754
        CHANNELS 3 Zrotation Xrotation Yrotation
        JOINT right_clavicle
        {
          OFFSET -13.16364 1.694482 -4.693211
          CHANNELS 3 Zrotation Xrotation Yrotation
          JOINT right_humerus
          {
            OFFSET -28.5034 -0.3100689 -2.792744
            CHANNELS 3 Zrotation Xrotation Yrotation
            JOINT right_radius
            {
              OFFSET -25.15693 0.02248979 -1.271978
              CHANNELS 3 Zrotation Xrotation Yrotation
              End Site
              {
                OFFSET -15 0 0
              }
            }
          }
        }
      }
      JOINT left_manubrium
      {
        OFFSET 5.722621 16.35077 3.967754
        CHANNELS 3 Zrotation Xrotation Yrotation
        JOINT left_clavicle
        {
          OFFSET 13.16364 1.694482 -4.693211
          CHANNELS 3 Zrotation Xrotation Yrotation
          JOINT left_humerus
          {
            OFFSET 29.39168 -1.063119 -2.237045
            CHANNELS 3 Zrotation Xrotation Yrotation
            JOINT left_radius
            {
              OFFSET 24.59957 -0.9528479 0.9047498
              CHANNELS 3 Zrotation Xrotation Yrotation
              End Site
              {
                OFFSET 15 -0 -0
              }
            }
          }
        }
      }
    }
  }
}
MOTION
Frames: 15
Frame Time: 0.0416666666667
-1690.074 100.3104 2212.796 -8.859545 0.02572515 -92.10962 2.071063 -18.77227 -7.584526 -0 20.80824 -0 -17.32353 12.12417 1.833042 -4.715808 13.79947 -7.927582 -0 17.34416 -0 9.530894 -12.14553 15.9614 -0.7097925 -3.653271 2.113552 0.01501992 15.97412 -7.056228 1.220906 22.86353 4.95518 3.466599 -18.93887 5.356163 -3.048912 -21.28597 11.54438 96.83488 14.536 -20.71736 -0 0 7.18139 -24.52683 9.121418 11.85557 6.949838 -29.60837 -10.3784 -86.14264 6.53771 13.53595 0 0 -19.67771 22.67903 15.10821 -13.88627
-1696.178 100.1865 2212.588 -8.483452 0.3158779 -92.05394 2.756958 -21.58276 -7.971534 -0 14.76014 -0 -18.34065 11.69214 1.942948 -4.424817 15.42537 -7.421732 -0 21.10465 -0 9.555286 -11.96608 15.12107 -0.2677147 -3.793024 1.997692 0.3955307 16.27142 -7.552886 1.154785 22.71537 4.816906 3.498814 -19.25185 5.126285 -3.296631 -21.14754 11.67328 97.6212 14.15019 -22.1607 -0 0 6.03868 -23.86338 9.295229 11.24605 7.112168 -30.74831 -10.63597 -85.8134 5.831017 12.71343 0 0 -21.69873 23.84259 15.02836 -15.18155
-1702.451 100.0994 2212.231 -8.57271 0.5317005 -92.1448 3.375156 -22.47434 -8.146083 -0 10.80671 -0 -18.80504 11.64648 1.854134 -4.139657 15.86559 -6.562522 -0 26.27301 -0 8.960396 -11.21293 14.19614 0.1399945 -3.762108 2.010804 0.5517168 16.51067 -7.761529 1.166115 22.68909 4.642057 3.476116 -19.15983 4.907034 -3.51295 -20.85097 11.77661 98.17524 13.65711 -22.98524 -0 0 5.103335 -23.83198 9.590733 10.94804 7.089411 -31.37711 -10.8518 -85.52198 5.241746 12.00506 0 0 -22.87597 24.26414 14.79727 -15.69417
-1708.992 100.2001 2211.756 -9.022324 0.6757528 -92.3591 3.93997 -21.49687 -8.081971 -0 8.771173 -0 -18.69632 11.75524 1.573926 -3.819904 15.053 -5.448033 -0 32.33729 -0 7.829798 -9.968119 13.29621 0.4959837 -3.570908 2.16695 0.5069208 16.65743 -7.693494 1.244337 22.75918 4.444687 3.402671 -18.73431 4.715199 -3.665124 -20.4567 11.85307 98.41585 13.19506 -23.17618 -0 0 4.500649 -24.31653 9.995053 10.94334 6.903969 -31.46864 -10.97731 -85.30979 4.883996 11.52087 0 0 -23.21974 23.90775 14.47666 -15.36552
-1715.823 100.5579 2211.198 -9.601787 0.7803632 -92.68645 4.482159 -19.02985 -7.7937 -0 7.851637 -0 -18.14773 11.59484 1.178589 -3.383564 13.04216 -4.26185 -0 38.29819 -0 6.422916 -8.436065 12.58373 0.7938544 -3.279379 2.474 0.3385801 16.69421 -7.419566 1.355573 22.86149 4.241856 3.294171 -18.15879 4.556115 -3.738051 -20.12221 11.90907 98.28481 12.91952 -22.80704 -0 0 4.391578 -25.04947 10.45099 11.15823 6.62284 -31.11481 -10.96393 -85.25199 4.832075 11.44222 0 0 -22.89421 22.93133 14.14196 -14.33882
-1722.887 101.1399 2210.589 -10.08434 0.8764087 -93.12647 5.004985 -15.54421 -7.330316 -0 7.263617 -0 -17.35378 10.80927 0.7839972 -2.775092 9.982826 -3.19022 -0 43.04688 -0 5.039588 -6.865787 12.20445 1.024376 -2.962319 2.925183 0.1271311 16.62098 -7.021674 1.461994 22.93242 4.052394 3.169856 -17.62535 4.430525 -3.73205 -20.01557 11.95063 97.75591 12.93661 -21.9677 -0 0 4.907988 -25.76541 10.88403 11.51315 6.318184 -30.44687 -10.78527 -85.42457 5.103538 11.93471 0 0 -22.08078 21.57148 13.85798 -12.84879
-1730.082 101.8321 2209.963 -10.32945 0.9764547 -93.67899 5.476125 -11.47038 -6.759926 -0 6.5944 -0 -16.49402 9.269248 0.5034052 -2.005713 6.112469 -2.362414 -0 45.72479 -0 3.92005 -5.477723 12.23638 1.173401 -2.682757 3.493356 -0.07410887 16.45341 -6.564974 1.535987 22.9341 3.893911 3.04711 -17.26517 4.338877 -3.658761 -20.24511 11.98042 96.84854 13.26824 -20.73816 -0 0 6.091729 -26.29458 11.22804 11.9488 6.042505 -29.5866 -10.449 -85.87694 5.652353 13.0719 0 0 -20.9156 20.05763 13.66919 -11.13752
-1737.292 102.4842 2209.357 -10.30403 1.07502 -94.33593 5.848305 -7.148037 -6.151384 -0 5.816376 -0 -15.69084 7.084847 0.4091713 -1.145285 1.726326 -1.830292 -0 45.9464 -0 3.200886 -4.409375 12.67591 1.229629 -2.479271 4.135061 -0.2448897 16.21919 -6.090433 1.565672 22.8599 3.778064 2.938623 -17.12622 4.280872 -3.538036 -20.83219 11.99901 95.63146 13.85369 -19.19261 -0 0 7.873575 -26.58532 11.44127 12.43176 5.821548 -28.63006 -9.993828 -86.6169 6.377638 14.80842 0 0 -19.48838 18.57006 13.59548 -9.409545
-1744.415 102.9546 2208.803 -10.05243 1.158615 -95.07988 6.087334 -2.796843 -5.55349 -0 5.099277 -0 -14.9954 4.489703 0.5172403 -0.2791528 -2.902577 -1.580582 -0 43.81263 -0 2.910559 -3.695795 13.46042 1.192323 -2.36365 4.80627 -0.3881562 15.94787 -5.617388 1.552926 22.72463 3.707641 2.850711 -17.18985 4.254182 -3.390966 -21.72819 12.0069 94.19752 14.59139 -17.40112 -0 0 10.1128 -26.67119 11.51292 12.94829 5.658143 -27.64025 -9.469508 -87.61453 7.163523 17.01685 0 0 -17.8589 17.21409 13.63371 -7.796095
-1751.371 103.136 2208.332 -9.641857 1.216805 -95.88874 6.187261 1.450376 -4.985818 -0 4.58626 -0 -14.40623 1.703065 0.7999005 0.5280603 -7.567243 -1.566276 -0 39.74747 -0 2.998948 -3.299177 14.50166 1.073219 -2.328228 5.473971 -0.512211 15.66087 -5.155275 1.506614 22.54874 3.678331 2.783998 -17.40926 4.254789 -3.232126 -22.85027 12.00588 92.63414 15.39048 -15.43678 -0 0 12.6509 -26.60914 11.45861 13.48773 5.543191 -26.65393 -8.916636 -88.81705 7.922206 19.54207 0 0 -16.08699 16.02382 13.76605 -6.349302
-1758.104 102.9628 2207.967 -9.133163 1.245945 -96.74035 6.16252 5.473158 -4.446045 -0 4.332662 -0 -13.89478 -1.104809 1.203016 1.232882 -12.08579 -1.734574 -0 34.3439 -0 3.369276 -3.155411 15.70131 0.891902 -2.354036 6.11212 -0.6205103 15.36874 -4.714892 1.438069 22.35153 3.683375 2.735672 -17.73328 4.279699 -3.066125 -24.09619 11.99852 91.02005 16.19204 -13.39164 -0 0 15.32259 -26.44397 11.31092 14.02921 5.464472 -25.69522 -8.362454 -90.15204 8.610486 22.21345 0 0 -14.25642 14.98658 13.96551 -5.065058
-1764.587 102.4169 2207.717 -8.590756 1.247155 -97.61237 6.02927 9.120522 -3.925131 -0 4.403781 -0 -13.41974 -3.752716 1.653916 1.794307 -16.2367 -2.037578 -0 28.31699 -0 3.891754 -3.19944 16.94785 0.6693936 -2.41391 6.690371 -0.714688 15.07569 -4.310421 1.361296 22.15532 3.71676 2.701392 -18.10289 4.329257 -2.89035 -25.33644 11.98609 89.44363 16.95632 -11.38766 -0 0 17.93301 -26.21837 11.11138 14.54224 5.40834 -24.78346 -7.830138 -91.51586 9.222161 24.82269 0 0 -12.47359 14.06668 14.19363 -3.91185
-1770.828 101.535 2207.579 -8.101487 1.224731 -98.47904 5.794142 12.23001 -3.422967 -0 4.970854 -0 -12.94016 -5.993957 2.070121 2.166176 -19.74859 -2.429142 -0 22.47015 -0 4.417176 -3.367716 18.11632 0.4240701 -2.475318 7.169835 -0.8026716 14.78779 -3.953981 1.293571 21.98998 3.773171 2.676572 -18.44211 4.40576 -2.703191 -26.417 11.96701 88.01718 17.63907 -9.567982 -0 0 20.25193 -25.99868 10.90246 14.9985 5.358912 -23.93632 -7.349359 -92.76956 9.768467 27.12149 0 0 -10.84278 13.2281 14.39978 -2.860178
-1776.877 100.409 2207.53 -7.770928 1.186123 -99.30839 5.455403 14.68215 -2.958366 -0 6.300563 -0 -12.43334 -7.537632 2.377375 2.308186 -22.36153 -2.861829 -0 17.55326 -0 4.811812 -3.59835 19.08836 0.1694721 -2.508315 7.510567 -0.9020678 14.5194 -3.649512 1.25242 21.88934 3.846819 2.657674 -18.66615 4.509524 -2.512445 -27.19339 11.93667 86.86689 18.18018 -8.065312 -0 0 22.05538 -25.8798 10.71641 15.3852 5.300554 -23.1711 -6.95818 -93.76236 10.25559 28.86919 0 0 -9.432997 12.458 14.53257 -1.90993
-1782.819 99.17271 2207.537 -7.6939 1.140533 -100.0623 5.009869 16.43849 -2.568094 -0 8.655354 -0 -11.9072 -8.132704 2.530303 2.20057 -23.90847 -3.293824 -0 14.04559 -0 5.003319 -3.841105 19.78576 -0.08729498 -2.496176 7.683933 -1.035315 14.29281 -3.391702 1.249957 21.88072 3.931678 2.643454 -18.7068 4.636392 -2.337175 -27.57788 11.8891 86.10122 18.51269 -6.964097 -0 0 23.19156 -25.95959 10.5649 15.71037 5.223717 -22.50532 -6.695032 -94.37556 10.66744 29.90367 0 0 -8.258268 11.78158 14.56006 -1.103962
